<svg fill="currentColor" viewBox="0 0 397 411" xmlns="http://www.w3.org/2000/svg">
<path d="M237.5 0C205 0 175.8 13.7 155.2 35.6C175.4 16.6 202.6 4.9 232.6 4.9C295 4.9 345.5 55.5 345.5 117.8C345.5 147.7 333.8 174.9 314.8 195.2C336.7 174.6 350.4 145.3 350.4 112.9C350.4 50.5 299.9 0 237.5 0Z" fill="black"/>
<path d="M213.2 291.5C210.2 288.9 207 286.8 203.4 285.3C199.2 283.5 194.9 282.3 190.3 283.3C189.4 283.5 188.6 283.6 187.7 283.7C181.1 284.1 174.4 284.5 167.8 284.8C160.9 285.2 154 285.6 147.1 286C145.8 286.1 145.8 286.1 145.8 284.8C145.9 279.9 146.5 275.1 147.7 270.3C148.3 267.8 147.6 265.6 146.7 263.4C146.4 262.5 145.6 262.1 144.6 262.1C142.1 262.1 139.6 262.1 137.1 262.1C136.4 262.1 136.1 262.3 136.2 263.1C136.5 267.5 136.7 271.8 136.9 276.2C137.1 279.4 137.2 282.5 137.4 285.7C137.5 287 137.3 286.8 136.3 286.9C136 286.9 135.7 287 135.4 287C129.6 287.3 123.8 287.7 118 288C110.2 288.4 102.4 288.7 94.7001 288.8C91.2001 288.9 87.6001 289 84.1001 288.7C81.2001 288.5 78.4001 287.8 75.6001 287.2C73.7001 286.8 71.7001 286.5 69.7001 286.7C68.5001 286.8 68.3001 287.3 68.6001 288.5C68.7001 289.1 69.0001 289.6 69.4001 290.1C70.0001 290.8 70.7001 291.5 71.1001 292.2C71.7001 293.4 72.6001 293.5 73.7001 293.5C90.5001 293.1 107.3 292.7 124.1 292.4C141.2 292 158.3 291.7 175.3 291.4C175.6 291.4 175.9 291.4 176.2 291.4C181.5 290.9 186.7 290.8 191.7 292.9C193.5 293.6 195 294.6 196.2 296.1C197.6 297.9 197.8 300 198.3 302.1C199.4 306.6 199.7 311.3 200.1 316C200.9 324.4 201.3 332.9 201.6 341.3C202 352.2 202.3 363.2 202.3 374.2C202.3 374.6 202.3 375.1 202.3 375.6C202.6 375.3 202.8 375.2 203 375V374.9C203.1 374.7 203.2 374.3 203.4 374.4C203.6 374.4 203.6 374.8 203.5 375C203.8 375.9 203.7 376.9 204 377.9C205.6 376.5 206.6 375 207.5 372.5C209.8 366.5 210.7 360.2 210.6 353.8C210.5 341.5 210.1 329.2 209.9 316.9C209.8 312.5 210.4 308.2 211.8 304.1C212.3 302.6 212.9 301.2 214.2 300.2C215.3 299.4 215.7 298.3 215.7 297C215.9 294.7 214.8 292.9 213.2 291.5Z" fill="black"/>
<path d="M74.3 108.8C64.9 100.9 55.6 93.0999 46.4 85.2999C37.1 77.4999 27.8 69.7 18.2 61.7C18.2 62.5 18.2 62.9999 18.2 63.3999C18.2 69.2999 18.2 75.0999 18.2 80.9999C18.2 82.0999 18.5 82.7999 19.4 83.3999C30 91.2999 40.7 99.2999 51.3 107.3C51.9 107.7 52.4 108.2 53.1 108.7C52.7 109.1 52.4 109.5 52 109.9C49 113 46 116.2 42.9 119.2C40.6 121.4 38.3 123.7 36.3 126.2C35.3 127.4 34.1 128.3 33 129.4C29.3 133.1 25.7 136.9 22.1 140.7C17.6 145.4 13.1 150 8.30003 154.4C5.90003 156.5 3.70002 158.7 1.40002 160.9C1.10002 161.1 0.900024 161.4 0.900024 161.7C1.50002 161.3 2.20003 160.9 2.80003 160.5C11.1 154.6 19.3 148.6 27.6 142.7C36.1 136.6 44.6 130.5 53.1 124.3C59 120 64.9 115.8 70.9 111.5C71.9 110.6 73.2 109.9 74.3 108.8Z" fill="black"/>
<path d="M77.7999 253.4C78.8999 254 80.0999 254.4 81.1999 255C82.7999 255.8 84.4999 256.2 86.2999 256.1C106.1 255.6 125.8 255.2 150.9 254.6C165.8 254.3 186 253.8 206.1 253.4C207.8 253.4 209.5 253 211.2 252.7C212 252.6 213.1 252.2 213.3 251.1C213.5 250.1 212.6 249.7 211.9 249.2C210.2 247.8 208.2 246.7 206.2 246C200.8 243.9 195.2 243.4 189.5 243.7C186.9 243.8 184.3 244.2 181.8 244.5C178.1 244.9 174.5 245.3 170.8 245.6C167.1 246 163.4 246.4 159.6 246.6C152.3 247 145.1 247.3 137.8 247.7C127.6 248.2 117.5 248.7 107.3 249.2C102.2 249.5 97.0999 249.8 92.0999 250C88.7999 250.1 85.4999 250.5 82.0999 250.2C80.6999 250.1 79.1999 250.1 77.6999 250C76.8999 250 76.1 250 75.5 250.4C75.1 250.6 74.8999 250.8 75.2999 251.3C75.9999 252.2 76.7999 252.9 77.7999 253.4Z" fill="black"/>
<path d="M87.5 301.9C87.6 301.2 87.3 301 86.6 301C83.4 301 80.3 301 77 301C77.4 302.4 77.9 303.6 78.1 304.9C78.4 307 78.6 309.1 78.7 311.2C79.5 325.8 79.2 340.4 78.9 354.9C78.7 363.3 78.4 371.7 77.9 380.1C77.5 387 77.7 393.9 78.7 400.8C79.2 403.8 79.9 406.6 81.2 409.3C81.5 409.9 81.7 410.7 82.5 410.6C83.1 410.5 83.4 409.8 83.6 409.2C84.4 407.4 84.8 405.5 85.2 403.6C86.1 399.2 86.5 394.7 86.7 390.2C87.2 380.6 87.4 371 87.5 361.4C87.8 341.7 87.4 322.1 87.3 302.4C87.5 302.3 87.5 302.1 87.5 301.9Z" fill="black"/>
<path d="M158.1 215.3C160.7 212.7 163.2 210.2 165.5 207.3C168.9 203 171.8 198.3 174.3 193.4C176.9 188.2 178.9 182.8 180.4 177.3C181.2 174.3 182 171.2 182.4 168.1C182.6 166.5 182.1 165.9 180.5 165.9C178.4 165.9 176.3 165.9 174.3 165.9C173.3 165.9 172.8 166.3 172.8 167.3C172.8 168.6 172.5 169.9 172.2 171C171.6 173.3 171.1 175.6 170.3 177.9C168.8 182.3 167.3 186.7 165.3 190.9C163.7 194.3 162 197.7 160 200.9C157.7 204.5 155.3 208.1 152.6 211.4C151.4 212.8 150.4 214.3 149.2 215.6C148.4 216.5 147.5 217.4 146.7 218.3C145.2 220 143.7 221.7 141.8 223C140.5 224 139.3 225 138.3 226.7C140.3 226.1 141.9 225.8 143.5 225.1C145.7 224.2 147.8 223.1 149.9 221.8C152.7 219.9 155.6 217.9 158.1 215.3Z" fill="black"/>
<path d="M145.3 296.9C142.7 296.9 140 296.9 137.3 296.9C137.4 297.8 137.4 298.7 137.4 299.5C137.6 304.8 137.3 310.1 137.1 315.4C136.8 322.4 136.2 329.4 135.4 336.3C134.9 340 134.4 343.7 134.9 347.5C135.1 348.6 135.3 349.7 135.3 350.7C135.4 353.2 136.4 355.3 137.6 357.3C138.2 358.3 139.2 359 140.5 359C140.9 359 141.3 359 141.4 358.5C141.5 358.1 141.8 357.8 141.9 357.4C142.6 354.9 143.2 352.4 143.5 349.8C144.6 342.3 145 334.8 145.3 327.3C145.7 318.8 145.8 310.4 145.8 301.9C145.8 300.4 145.8 299 145.8 297.5C145.9 297.1 145.8 296.9 145.3 296.9Z" fill="black"/>
<path d="M176.1 332C175.1 331.6 174 331.1 173 330.7C169.6 329.2 166 328.1 162.2 328.1C161.2 328.1 160.1 328 159.1 328.4C158.2 328.7 158 329 158.2 329.9C158.3 330.5 158.5 331 158.9 331.4C159.4 331.9 160.1 332.2 160.7 332.5C163.1 333.8 165.7 334.9 168 336.5C169.5 337.5 171 338.6 172.2 340C172.9 340.9 173.9 341.5 174.9 342.1C176.7 343.1 178.5 342.6 179.4 340.9C181.1 337.8 179.4 333.3 176.1 332Z" fill="black"/>
<path d="M159.8 310.9H159.9C161.3 311.4 162.6 312.1 164 312.7C166 313.6 167.8 314.6 169.6 315.9C170.6 316.6 171.4 317.6 172.6 318.1C174.5 318.9 176.3 318.9 177 316.3C177.6 314.1 175.9 310.6 173.5 310C172.5 309.7 171.5 309.2 170.5 309C168 308.3 165.5 307.5 162.8 307.6C162 307.6 161.1 307.6 160.3 307.8C159.5 307.9 158.5 308 158.4 309C158.3 309.8 159.1 310.4 159.8 310.9Z" fill="black"/>
<path d="M123.5 310C123 309.8 122.5 309.6 121.9 309.4C118.8 308.4 115.8 307.3 112.4 307.5C111.4 307.6 110.4 307.4 109.3 307.8C108.4 308.2 108.1 308.6 108.4 309.5C108.6 310.2 109.1 310.6 109.7 310.9C110.6 311.3 111.4 311.7 112.3 312.1C115.1 313.2 117.8 314.6 120.2 316.6C121 317.2 121.8 317.9 122.7 318.3C124.4 319 125.7 318.4 126.5 316.8C127.5 314.8 126.1 310.8 123.5 310Z" fill="black"/>
<path d="M122.4 329.5C119.2 328.5 116 327.3 112.5 327.2C111.4 327.3 110.3 327.3 109.3 327.5C108.3 327.6 108 328.1 108.1 329C108.2 330.1 109.1 330.5 109.9 330.8C111.7 331.5 113.5 332.3 115.2 333.2C117 334.1 118.6 335.2 120.1 336.4C120.8 337 121.6 337.4 122.4 337.9C124.1 338.8 126.1 337.9 126.4 335.9C126.7 334.2 126.3 332.6 125.1 331.3C124.4 330.5 123.5 329.9 122.4 329.5Z" fill="black"/>
<path d="M199.3 372C199.1 371.9 199 372.3 198.9 372.5V372.6C199.1 372.6 199.3 372.6 199.5 372.6C199.5 372.4 199.5 372.1 199.3 372Z" fill="black"/>
<path d="M246.1 89.7999C241.7 86.7 236.9 84.4 231.7 83.1C228.9 82.4 226.3 82.9 224 84.7C223.8 84.9 223.6 85.1 223.2 85.2C221.5 85.8 219.9 86.4999 218.3 86.9999C210 89.7999 201.5 91.5999 192.8 92.4999C190.5 92.6999 188.2 92.7999 186 92.2999C185 92 183.9 91.7 182.9 91.4C180.3 90.5 177.5 90.1999 175 88.9999C174.6 88.7999 174.1 88.7999 173.6 88.7999C172.9 88.8999 172.3 88.8 172 89.7C171.8 90.6 171.4 91.4 172.1 92.2C173.7 94.3 174.9 96.4999 175.8 98.9999C177.6 104.2 178.3 109.6 178.5 115C178.8 121.5 178.5 128.1 178 134.6C177.4 142.7 176.2 150.7 174.7 158.6C174.4 160 174.7 159.8 173.2 159.8C165.1 159.9 157 159.2 149 157.9C132.7 155.1 117.4 149.7 103.1 141.6C98.5 139 94 136.1 89.8 132.9C89.1 132.4 88.8 131.9 88.8 131C88.8 129.2 88.5001 127.4 88.5001 125.6C88.4001 118.6 88.5 111.7 88.4 104.7C88.4 103.9 88.7 103.5 89.3 103C92.9 100.1 96.7 97.6 100.6 95.2999C111.5 88.7999 122.9 83.3 134.5 78.4C136.6 77.5 138.7 76.6 141 76.2C144.1 75.6 147 74.2999 150.1 73.4999C152.6 72.7999 153.8 70.8999 153.7 68.2999C153.7 67.5999 153.6 67 153.4 66.2999C152.7 64 151.6 61.8999 150.2 59.9999C146.8 55.2999 142.3 52 137 49.7C136.7 49.6 136.3 49.2 135.8 49.4C135.2 52.5 133.9 55.3 132.2 57.9C129 63.2 125 67.9 120.4 71.9C110.6 80.5 100.1 88.2 89.2 95.2999C89 95.3999 88.8 95.6 88.4 95.4C88.4 93.1 88.4 90.7 88.4 88.2999C88.4 77.3999 88.3 66.5 89.4 55.6C89.8 51.3 90.3 46.9 92.4 43C92.9 42.1 92.9 41 92.6 40C92.1 38.3 91.1 36.7999 89.6 35.7999C87.1 33.9999 84.4 32.4999 81.6 31.2999C80.2 30.6999 78.7 30.2 77.2 30.2C76.5 30.2 76 30.5 75.9 31C75.8 32 75.7001 33 76.0001 34C76.9001 36.5 77.9001 39.1 78.5001 41.7C79.6001 46.3 79.7001 51.0999 80.0001 55.7999C80.6001 64.7 80.5 73.6 80.4 82.6C80.4 89.9 80 97.2 80.1 104.6C80.2 108.3 80.2 112.1 80.3 115.8C80.4 126.1 80.6001 136.4 80.5001 146.6C80.4001 157.2 80.2 167.9 80.7 178.5C80.8 181.5 80.9 184.5 81.1 187.4C81.5 187.5 81.7 187.2 81.8 187.1C82.6 186 83.5 184.9 84.1 183.7C86.2 179.9 87.6001 175.9 88.5001 171.6C90.1001 164.5 90.3 157.3 89.9 150.1C89.7 145.6 89.4 141.2 89.2 136.7C89.4 136.7 89.6 136.7 89.8 136.7C92.2 138.8 95 140.5 97.7 142.3C100.4 144.1 103.2 145.6 106 147.1C109 148.7 112.1 150 115.2 151.5C117 152.3 118.9 153 120.7 153.6C122.9 154.4 125.2 155.3 127.4 155.9C128.9 156.3 130.5 156.7 131.9 157.2C134.3 158 136.9 158.1 139.2 159C140.1 159.4 141.1 159.3 142 159.5C148.4 160.9 154.9 161.8 161.4 162.4C166.9 162.9 172.5 163.1 178 163C181.9 162.9 185.8 163.2 189.7 163.2C195.6 163.3 201.6 164.4 207.5 163C208.3 162.8 208.5 163.2 208.6 163.9C208.7 164.8 208.9 165.6 209.1 166.5C209.3 167.7 210 168.4 211.2 168.6C212.2 168.7 213.3 168.8 214.3 168.7C215.6 168.6 216.6 167.8 216.9 166.5C217.3 164.9 217.6 163.4 217.9 161.8C218 161.2 218 160.8 217.7 160.2C217.1 159.1 217.5 158.4 218.7 158.1C219.5 157.9 220 157.4 220 156.6C220 155.1 220.1 153.7 220 152.2C220 151.2 219.4 150.6 218.3 150.6C214.7 150.6 211.1 150.6 207.6 150.6C206.5 150.6 206.2 151 206.2 152C206.1 153.5 206.1 155 206.2 156.5C206.2 157.5 206.6 157.9 207.7 158.1C208.4 158.2 208.7 158.6 208.9 159.2C208.4 159.4 208.1 159.2 207.7 159.2C206 159 204.2 158.4 202.5 158.5C199.1 158.6 195.7 158.8 192.2 158.9C189.6 159 187 159.1 184.5 159.1C184.2 158.5 184.4 158 184.4 157.5C185.3 150.6 186.1 143.6 187 136.7C187.2 135.3 186.5 134.5 185 134.4C184.3 134.4 183.7 134.4 183 134.4C182.7 134.4 182.3 134.5 182.2 134.2C181.8 133.5 181.8 132.7 182 131.9C182.2 131.3 182.9 131.2 183.4 131.2C184.3 131.1 185.2 131.2 186 131.2C188.7 131.2 188.7 131.2 188.7 128.5C188.7 127.3 188.7 127.3 189.9 127.4C193 127.5 196 127.7 199.1 127.8C199.7 127.8 200.3 127.9 200.8 127.4C201.3 126.9 202.2 127 202.6 127.3C203.2 127.8 203.8 127.7 204.5 127.8C205.5 127.9 206.5 127.9 207.5 128C208.1 128.1 208.9 128.8 208.9 129.3C209 129.8 208.5 130.4 207.7 130.6C206.6 130.9 206.3 131.3 206.2 132.4C206.2 133.7 206.2 135 206.2 136.3C206.2 137.9 206.4 138.1 208 138.1C211.4 138.1 214.7 138.1 218.1 138.1C219.5 138.1 220.1 137.5 220.1 136.1C220.1 134.9 220.1 133.7 220.1 132.5C220.1 131.1 219.9 130.8 218.5 130.5C217.8 130.3 217.6 129.9 217.6 129.3C217.6 128.9 217.6 128.6 217.9 128.3C218.2 128 218.2 127.6 218.1 127.1C217.7 125.4 217.4 123.8 217.1 122.1C217 121.2 216.4 120.7 215.7 120.4C213.9 119.6 212 119.6 210.2 120.6C209.8 120.8 209.5 121.1 209.3 121.6C209 123 208.9 123 207.6 123C207.1 123 206.7 123 206.2 123C204.9 123 203.6 122.8 202.5 123.7C201.9 124.1 201.1 124.2 200.8 123.7C200.2 122.9 199.5 123.1 198.7 123.1C195.4 123.2 192.2 123.4 188.9 123.5C188.8 123.4 188.7 123.3 188.6 123.2C188.1 114.7 188.4 106.3 188.9 97.7999C188.9 97.2 189.2 96.9999 189.8 96.9999C192.1 96.6999 194.4 96.4 196.7 96.1C202.6 95.4 208.5 94.6999 214.5 93.9999C217.6 93.6999 220.8 93.2999 224 93.2999C225.7 93.2999 227 94.1999 227.7 95.4999C229.1 97.9999 229.9 100.7 230.1 103.5C230.1 104 230.2 104.4 230.3 104.9C230.9 109.7 231.5 114.6 231.4 119.5C231.3 126 231.4 132.5 231.5 139C231.6 149.3 231.9 159.6 231.9 169.8C231.7 190.6 231.4 211.4 231.3 232.2C231.3 242.1 231.2 252 231.1 261.9C231.1 262 231.1 262.2 231.2 262.2C231.3 262.2 231.3 262.1 231.4 262C231.9 261.8 232.3 261.4 232.6 261.1C234.2 259.6 235.3 257.9 236.3 256C238.7 251.5 240 246.6 241.1 241.6C242.4 235.2 243 228.7 243.2 222.1C243.5 212.8 243.1 203.5 242.9 194.2C242.7 181.4 242.3 168.6 242.1 155.7C241.9 145.5 241.9 135.2 241.8 125C241.8 120.7 241.8 116.4 242.3 112.1C242.8 108.4 243.3 104.6 244.7 101.1C245.3 99.4 246.2 97.9999 247.5 96.7999C248.8 95.4999 249.3 94 248.7 92.2999C248 91.7999 247.3 90.7 246.1 89.7999Z" fill="black"/>
<path d="M0.400002 162.2C0.300002 162.1 0.300005 162.1 0.200005 162C0.100005 162.1 0 162.2 0 162.2C0.2 162.4 0.300002 162.3 0.400002 162.2Z" fill="black"/>
<path d="M0.399948 162.2C0.599948 162.1 0.699945 162 0.599945 161.8C0.399945 161.8 0.299951 161.9 0.199951 162C0.299951 162 0.399948 162.1 0.399948 162.2Z" fill="black"/>
<path d="M274.5 239.3L272.1 222.8H271.9L265.2 236.3L258.5 222.8H258.2L255.9 239.3H257.5L259.1 227.4L265 239.3H265.4L271.2 227.5L272.8 239.3H274.5Z" fill="black"/>
<path d="M290 223.5C288.6 222.7 287.2 222.4 285.6 222.4C284.1 222.4 282.6 222.8 281.3 223.5C280 224.3 278.9 225.3 278.2 226.7C277.5 228.1 277.1 229.5 277.1 231.1C277.1 232.6 277.5 234.1 278.3 235.4C279.1 236.7 280.1 237.8 281.5 238.5C282.8 239.3 284.3 239.6 285.9 239.6C287.5 239.6 288.9 239.2 290.3 238.5C291.6 237.7 292.7 236.7 293.5 235.3C294.3 234 294.6 232.5 294.6 230.9C294.6 229.3 294.2 227.9 293.4 226.5C292.5 225.3 291.4 224.3 290 223.5ZM290.6 236.1C289.2 237.4 287.6 238.1 285.6 238.1C283.7 238.1 282.1 237.4 280.7 236.1C279.3 234.7 278.7 233.1 278.7 231.2C278.7 229.2 279.4 227.5 280.7 226.1C282 224.7 283.7 224 285.6 224C287.5 224 289.2 224.7 290.5 226C291.9 227.4 292.6 229 292.6 231C292.7 233.1 292 234.8 290.6 236.1Z" fill="black"/>
<path d="M313.2 235.4C314 234.1 314.3 232.6 314.3 231C314.3 229.4 313.9 228 313.1 226.6C312.3 225.3 311.3 224.2 309.9 223.5C308.5 222.7 307.1 222.4 305.5 222.4C304 222.4 302.5 222.8 301.2 223.5C299.9 224.3 298.8 225.3 298.1 226.7C297.4 228.1 297 229.5 297 231.1C297 232.6 297.4 234.1 298.2 235.4C299 236.7 300 237.8 301.4 238.5C302.7 239.3 304.2 239.6 305.8 239.6C307.4 239.6 308.8 239.2 310.2 238.5C311.4 237.8 312.4 236.7 313.2 235.4ZM305.6 238.1C303.7 238.1 302.1 237.4 300.7 236.1C299.3 234.7 298.7 233.1 298.7 231.2C298.7 229.2 299.4 227.5 300.7 226.1C302 224.7 303.7 224 305.6 224C307.5 224 309.2 224.7 310.5 226C311.9 227.4 312.6 229 312.6 231C312.6 233 311.9 234.7 310.6 236.1C309.2 237.4 307.6 238.1 305.6 238.1Z" fill="black"/>
<path d="M330.6 222.8H329V235.4L318 222.8H317.7V239.3H319.4V226.8L330.2 239.3H330.6V222.8Z" fill="black"/>
<path d="M347.5 235.5C348.2 234.2 348.5 232.8 348.5 231.3C348.5 230 348.3 228.8 347.9 227.7C347.5 226.6 346.9 225.7 346.1 225C345.3 224.3 344.4 223.7 343.3 223.4C342.2 223.1 340.5 222.9 338.1 222.9H334.7V239.4H340C342.1 239.4 343.8 239.1 344.9 238.4C346 237.7 346.9 236.7 347.5 235.5ZM342.4 237.4C341.5 237.6 340.1 237.7 338.1 237.7H336.2V224.4H337.4C339.4 224.4 340.9 224.5 341.9 224.7C342.9 224.9 343.8 225.3 344.6 225.9C345.4 226.5 345.9 227.3 346.3 228.2C346.7 229.1 346.9 230.1 346.9 231.3C346.9 232.3 346.7 233.3 346.4 234.1C346 234.9 345.5 235.7 344.9 236.2C344.1 236.8 343.3 237.2 342.4 237.4Z" fill="black"/>
<path d="M360.3 239.3H362.3L356.4 231.6C358.2 231.7 359.6 231.3 360.6 230.5C361.6 229.7 362.1 228.6 362.1 227.2C362.1 226.5 362 225.9 361.7 225.3C361.4 224.7 361 224.2 360.6 223.9C360.1 223.5 359.5 223.3 358.9 223.1C358.2 222.9 357 222.9 355.1 222.9H351.8V239.4H353.5V231.7H354.4L360.3 239.3ZM353.5 224.4H356.4C357.8 224.4 358.8 224.6 359.5 225.1C360.2 225.5 360.5 226.2 360.5 227.2C360.5 228.2 360.2 228.9 359.5 229.4C358.8 229.9 357.8 230.1 356.4 230.1H353.6V224.4H353.5Z" fill="black"/>
<path d="M381.2 235.4C382 234.1 382.3 232.6 382.3 231C382.3 229.4 381.9 228 381.1 226.6C380.3 225.3 379.3 224.2 377.9 223.5C376.5 222.7 375.1 222.4 373.5 222.4C372 222.4 370.5 222.8 369.2 223.5C367.9 224.3 366.8 225.3 366.1 226.7C365.3 228 365 229.5 365 231.1C365 232.6 365.4 234.1 366.2 235.4C367 236.7 368 237.8 369.4 238.5C370.7 239.3 372.2 239.6 373.8 239.6C375.4 239.6 376.8 239.2 378.2 238.5C379.4 237.8 380.4 236.7 381.2 235.4ZM373.6 238.1C371.7 238.1 370.1 237.4 368.7 236.1C367.3 234.7 366.7 233.1 366.7 231.2C366.7 229.2 367.4 227.5 368.7 226.1C370 224.7 371.7 224 373.6 224C375.5 224 377.2 224.7 378.5 226C379.9 227.4 380.6 229 380.6 231C380.6 233 379.9 234.7 378.6 236.1C377.2 237.4 375.6 238.1 373.6 238.1Z" fill="black"/>
<path d="M395.9 227.2C395.9 226.5 395.8 225.9 395.5 225.3C395.2 224.7 394.8 224.2 394.3 223.9C393.8 223.5 393.3 223.2 392.7 223.1C392.1 222.9 390.8 222.9 388.9 222.9H385.6V239.4H387.3V231.7H388.5C390.4 231.7 391.8 231.6 392.8 231.4C393.8 231.2 394.5 230.8 395.1 230C395.6 229.3 395.9 228.3 395.9 227.2ZM393.4 229.2C392.8 229.8 391.7 230 390.1 230H387.3V224.4H390.2C392.9 224.4 394.2 225.3 394.2 227.2C394.2 228 393.9 228.7 393.4 229.2Z" fill="black"/>
<path d="M254.7 246.4H257.1V255.9H258.2V246.4H260.5V245.4H254.7V246.4Z" fill="black"/>
<path d="M268.4 249C267.6 248.2 266.7 247.9 265.5 247.9C264.4 247.9 263.4 248.3 262.6 249.1C261.8 249.9 261.4 250.9 261.4 252C261.4 253.1 261.8 254.1 262.5 254.9C263.3 255.7 264.2 256.1 265.4 256.1C267 256.1 268.3 255.3 269.1 253.7L268.2 253.3C267.5 254.5 266.6 255.2 265.2 255.2C264.4 255.2 263.7 254.9 263.1 254.3C262.5 253.7 262.2 253 262.2 252H269.2C269.6 250.8 269.2 249.8 268.4 249ZM265.5 248.9C266.2 248.9 266.9 249.1 267.4 249.5C267.9 249.9 268.3 250.5 268.4 251.3H262.6C263.1 249.7 264.1 248.9 265.5 248.9Z" fill="black"/>
<path d="M276 248.9C277.2 248.9 278.1 249.4 278.8 250.3L279.6 249.8C279.3 249.2 278.8 248.8 278.1 248.5C277.5 248.2 276.8 248 276 248C274.7 248 273.7 248.4 272.8 249.2C272 250 271.6 251 271.6 252.2C271.6 253.3 272 254.3 272.8 255.1C273.6 255.9 274.6 256.3 275.8 256.3C276.6 256.3 277.3 256.1 277.9 255.8C278.6 255.5 279.1 255.1 279.5 254.5L278.7 254C278 254.9 277 255.4 275.9 255.4C274.9 255.4 274.1 255.1 273.5 254.4C272.9 253.8 272.6 253 272.6 252.1C272.6 251.2 272.9 250.5 273.6 249.9C274.3 249.2 275.1 248.9 276 248.9Z" fill="black"/>
<path d="M286.5 248.4C286 248.1 285.5 247.9 284.9 247.9C283.8 247.9 282.8 248.4 282 249.5V245.1H281V255.9H282V253.1C282 252 282 251.3 282.1 251C282.2 250.6 282.4 250.3 282.6 250C282.9 249.7 283.2 249.4 283.5 249.2C283.9 249 284.2 248.9 284.6 248.9C285 248.9 285.3 249 285.6 249.1C285.9 249.2 286.1 249.5 286.3 249.7C286.5 250 286.6 250.3 286.6 250.6C286.6 250.9 286.7 251.5 286.7 252.3V256H287.7V252C287.7 251 287.6 250.2 287.4 249.7C287.3 249.1 287 248.7 286.5 248.4Z" fill="black"/>
<path d="M295.5 248.4C295 248.1 294.5 247.9 293.9 247.9C292.8 247.9 291.8 248.4 291 249.5V248.1H290V255.9H291V253.1C291 252 291 251.3 291.1 251C291.2 250.6 291.4 250.3 291.6 250C291.9 249.7 292.2 249.4 292.5 249.2C292.8 249 293.2 248.9 293.6 248.9C294 248.9 294.3 249 294.5 249.1C294.8 249.2 295 249.4 295.2 249.6C295.4 249.8 295.5 250.1 295.6 250.4C295.7 250.7 295.7 251.3 295.7 252.3V256H296.7V252C296.7 251 296.6 250.2 296.4 249.7C296.3 249.1 296 248.7 295.5 248.4Z" fill="black"/>
<path d="M302.7 247.9C301.6 247.9 300.6 248.3 299.8 249.1C299 249.9 298.6 250.9 298.6 252C298.6 253.1 299 254.1 299.8 254.9C300.6 255.7 301.6 256.1 302.7 256.1C303.8 256.1 304.8 255.7 305.6 254.9C306.4 254.1 306.8 253.1 306.8 252C306.8 250.9 306.4 249.9 305.6 249.1C304.8 248.3 303.8 247.9 302.7 247.9ZM304.8 254.3C304.2 254.9 303.5 255.2 302.6 255.2C301.7 255.2 301 254.9 300.4 254.3C299.8 253.7 299.5 252.9 299.5 252.1C299.5 251.2 299.8 250.5 300.4 249.9C301 249.3 301.7 249 302.6 249C303.4 249 304.1 249.3 304.7 249.9C305.3 250.5 305.6 251.3 305.6 252.1C305.7 253 305.4 253.7 304.8 254.3Z" fill="black"/>
<path d="M309.5 245.1H308.5V255.9H309.5V245.1Z" fill="black"/>
<path d="M315.3 247.9C314.2 247.9 313.2 248.3 312.4 249.1C311.6 249.9 311.2 250.9 311.2 252C311.2 253.1 311.6 254.1 312.4 254.9C313.2 255.7 314.2 256.1 315.3 256.1C316.4 256.1 317.4 255.7 318.2 254.9C319 254.1 319.4 253.1 319.4 252C319.4 250.9 319 249.9 318.2 249.1C317.4 248.3 316.4 247.9 315.3 247.9ZM317.4 254.3C316.8 254.9 316.1 255.2 315.2 255.2C314.3 255.2 313.6 254.9 313 254.3C312.4 253.7 312.1 252.9 312.1 252.1C312.1 251.2 312.4 250.5 313 249.9C313.6 249.3 314.3 249 315.2 249C316 249 316.7 249.3 317.3 249.9C317.9 250.5 318.2 251.3 318.2 252.1C318.3 253 318 253.7 317.4 254.3Z" fill="black"/>
<path d="M328.1 249.5C327.2 248.5 326.2 247.9 325 247.9C323.9 247.9 323 248.3 322.2 249.1C321.4 249.9 321 250.8 321 251.9C321 253 321.4 253.9 322.1 254.6C322.9 255.4 323.8 255.8 324.9 255.8C325.5 255.8 326.1 255.7 326.6 255.4C327.2 255.2 327.6 254.8 328 254.3V254.6C328 255.4 327.9 256.1 327.7 256.5C327.5 256.9 327.2 257.2 326.7 257.5C326.2 257.8 325.6 257.9 325 257.9C323.6 257.9 322.7 257.4 322.1 256.4H321C321.6 258 323 258.8 325 258.8C325.6 258.8 326.1 258.7 326.6 258.5C327.1 258.3 327.5 258.1 327.9 257.7C328.3 257.4 328.5 256.9 328.7 256.4C328.9 255.9 329 255.1 329 254V248H328V249.5H328.1ZM327.2 254C326.6 254.6 325.9 254.8 325 254.8C324.1 254.8 323.4 254.5 322.8 254C322.2 253.4 321.9 252.8 321.9 252C321.9 251.2 322.2 250.5 322.8 249.8C323.4 249.2 324.2 248.9 325.1 248.9C326 248.9 326.7 249.2 327.3 249.8C327.9 250.4 328.2 251.1 328.2 252C328.1 252.8 327.8 253.5 327.2 254Z" fill="black"/>
<path d="M334 254.1L331.3 248.1H330.3L333.5 255.4L332 258.8H333.1L337.7 248.1H336.6L334 254.1Z" fill="black"/>
<path d="M348.1 246.1C349.6 246.1 350.9 246.7 351.9 247.9L352.7 247.3C352.2 246.6 351.5 246 350.7 245.7C349.9 245.3 349 245.1 348 245.1C346.9 245.1 346 245.3 345.1 245.8C344.2 246.3 343.5 246.9 343 247.8C342.5 248.6 342.3 249.6 342.3 250.6C342.3 252.2 342.8 253.6 343.9 254.6C345 255.7 346.3 256.2 348 256.2C349 256.2 349.8 256 350.6 255.7C351.4 255.4 352.1 254.8 352.6 254.1L351.8 253.5C350.8 254.7 349.6 255.2 348.1 255.2C346.8 255.2 345.7 254.8 344.8 253.9C343.9 253 343.5 252 343.5 250.7C343.5 249.4 344 248.4 344.9 247.5C345.8 246.6 346.9 246.1 348.1 246.1Z" fill="black"/>
<path d="M358.4 247.9C357.3 247.9 356.3 248.3 355.5 249.1C354.7 249.9 354.3 250.9 354.3 252C354.3 253.1 354.7 254.1 355.5 254.9C356.3 255.7 357.3 256.1 358.4 256.1C359.5 256.1 360.5 255.7 361.3 254.9C362.1 254.1 362.5 253.1 362.5 252C362.5 250.9 362.1 249.9 361.3 249.1C360.5 248.3 359.5 247.9 358.4 247.9ZM360.6 254.3C360 254.9 359.3 255.2 358.4 255.2C357.5 255.2 356.8 254.9 356.2 254.3C355.6 253.7 355.3 252.9 355.3 252.1C355.3 251.2 355.6 250.5 356.2 249.9C356.8 249.3 357.5 249 358.4 249C359.2 249 359.9 249.3 360.5 249.9C361.1 250.5 361.4 251.3 361.4 252.1C361.4 253 361.1 253.7 360.6 254.3Z" fill="black"/>
<path d="M365.4 254.4C365.2 254.4 365 254.5 364.8 254.7C364.6 254.9 364.5 255.1 364.5 255.3C364.5 255.5 364.6 255.8 364.8 255.9C365 256.1 365.2 256.2 365.4 256.2C365.6 256.2 365.9 256.1 366 255.9C366.2 255.7 366.3 255.5 366.3 255.3C366.3 255.1 366.2 254.8 366 254.7C365.9 254.5 365.7 254.4 365.4 254.4Z" fill="black"/>
<path d="M368.2 256.9L368.9 257.2L370.4 254.5L369.4 254L368.2 256.9Z" fill="black"/>
<path d="M373.7 245.4H372.7V255.9H377.8V254.9H373.7V245.4Z" fill="black"/>
<path d="M381.2 245.1H380.2V248.1H378.8V249H380.2V255.9H381.2V249H382.8V248.1H381.2V245.1Z" fill="black"/>
<path d="M391.1 249.5C390.3 248.4 389.3 247.9 388 247.9C386.9 247.9 385.9 248.3 385.1 249.1C384.3 249.9 383.9 250.9 383.9 252C383.9 253.1 384.3 254.1 385.1 254.9C385.9 255.7 386.8 256.1 387.9 256.1C389.1 256.1 390.1 255.6 391 254.5V255.8H392V245.1H391V249.5H391.1ZM390.2 254.4C389.6 255 388.9 255.3 388 255.3C387.1 255.3 386.4 255 385.8 254.3C385.2 253.7 384.9 252.9 384.9 252C384.9 251.1 385.2 250.4 385.8 249.8C386.4 249.2 387.1 248.9 388 248.9C388.9 248.9 389.6 249.2 390.2 249.8C390.8 250.4 391.1 251.2 391.1 252.1C391.2 253 390.9 253.8 390.2 254.4Z" fill="black"/>
<path d="M396.1 254.6C395.9 254.4 395.7 254.3 395.5 254.3C395.3 254.3 395.1 254.4 394.9 254.6C394.7 254.8 394.6 255 394.6 255.2C394.6 255.4 394.7 255.7 394.9 255.8C395.1 256 395.3 256.1 395.5 256.1C395.7 256.1 396 256 396.1 255.8C396.3 255.6 396.4 255.4 396.4 255.2C396.4 255 396.3 254.8 396.1 254.6Z" fill="black"/>
</svg>
